# xmcd
#
# Track frame offsets:
#	150
#	5067
#	23414
#	39114
#	53766
#	72258
#	90229
#	91810
#	108684
#	111366
#	126259
#	137967
#	157051
#	160722
#	175474
#	189797
#	202627
#	205836
#	224614
#	239507
#	255395
#	273540
#
# Disc length: 3888 seconds
#
# Revision: 83262881
# Processed by: cddbd v1.5.1PL0 Copyright (c) Steve Scherf et al.
# Submitted via: EasyCDDAExtractor 8.0.2.1
#
DISCID=2d0f2e16
DTITLE=Royal Flush - Ghetto Millionaire
DYEAR=1997
DGENRE=Hip-Hop
TTITLE0=Intro
TTITLE1=I Been Gettin' So Much $
TTITLE2=Iced Down Medallions (Featuring Noreaga)
TTITLE3=Can't Help It (Featuring Khadejia)
TTITLE4=Illiodic Shines (Featuring Mic Geronimo)
TTITLE5=Movin' On Your Weak Productions
TTITLE6=Conflict Intro
TTITLE7=Conflict (Featuring Wastlanz)
TTITLE8=Shines Intro
TTITLE9=Shines
TTITLE10=Family Problems
TTITLE11=What A Shame (Featuring Noreaga)
TTITLE12=Regulate Intro
TTITLE13=Regulate (Featuring Mic Geronimo)
TTITLE14=Worldwide
TTITLE15=Niggas Night Out (Featuring Ja Rule)
TTITLE16=International Currency Intro
TTITLE17=International Currency (Featuring Wastlanz)
TTITLE18=War
TTITLE19=Makin' Moves (Featuring Mic Geronimo)
TTITLE20=Reppin'
TTITLE21=Dead Letter
EXTD=
EXTT0=
EXTT1=
EXTT2=
EXTT3=
EXTT4=
EXTT5=
EXTT6=
EXTT7=
EXTT8=
EXTT9=
EXTT10=
EXTT11=
EXTT12=
EXTT13=
EXTT14=
EXTT15=
EXTT16=
EXTT17=
EXTT18=
EXTT19=
EXTT20=
EXTT21=
PLAYORDER=
